<?xml version="1.0" standalone="no"?>
<!DOCTYPE svg PUBLIC "-//W3C//DTD SVG 20010904//EN"
 "http://www.w3.org/TR/2001/REC-SVG-20010904/DTD/svg10.dtd">
<svg version="1.0" xmlns="http://www.w3.org/2000/svg"
 width="700.000000pt" height="700.000000pt" viewBox="0 0 700.000000 700.000000"
 preserveAspectRatio="xMidYMid meet">
<metadata>
Created by potrace 1.14, written by Peter Selinger 2001-2017
</metadata>
<g transform="translate(0.000000,700.000000) scale(0.100000,-0.100000)"
fill="#000000" stroke="none">
<path d="M3155 6664 c-1081 -122 -2013 -771 -2501 -1741 -211 -417 -319 -854
-331 -1334 -8 -332 18 -574 97 -884 89 -350 227 -658 435 -970 135 -202 207
-288 404 -485 270 -269 500 -435 836 -600 334 -164 627 -254 1008 -307 173
-24 613 -24 787 0 604 84 1136 307 1590 667 135 107 404 375 510 510 278 351
482 761 590 1185 72 281 100 508 100 798 0 1159 -620 2212 -1638 2781 -330
185 -686 304 -1097 368 -176 27 -602 34 -790 12z m1856 -1320 c39 -20 71 -69
76 -117 4 -35 -100 -378 -620 -2040 -352 -1123 -635 -2010 -647 -2026 -26 -38
-98 -66 -147 -58 -72 12 -133 81 -133 150 0 33 350 1170 765 2486 13 41 20 70
16 65 -4 -5 -279 -513 -611 -1129 -332 -616 -610 -1130 -618 -1143 -36 -56
-129 -70 -180 -27 -36 30 -56 75 -50 113 2 15 305 585 672 1267 368 682 671
1245 674 1250 14 29 -117 -126 -928 -1093 -534 -637 -894 -1059 -913 -1068
-77 -40 -177 21 -177 108 0 25 8 56 19 73 15 24 524 632 1799 2150 23 27 117
100 -1117 -875 -607 -479 -1116 -876 -1132 -882 -101 -35 -199 75 -152 170 14
29 233 207 1030 837 556 440 1015 804 1020 809 4 5 -39 -16 -97 -47 -119 -63
-1663 -861 -2021 -1046 -205 -105 -242 -121 -284 -121 -160 0 -213 213 -73
293 24 14 633 330 1353 702 721 373 1542 798 1826 945 283 147 524 270 535
273 26 7 83 -2 115 -19z"/>
</g>
</svg>
